<mxfile host="app.diagrams.net" agent="Mozilla/5.0 (Windows NT 10.0; Win64; x64) AppleWebKit/537.36 (KHTML, like Gecko) Chrome/134.0.0.0 Safari/537.36" version="26.1.1">
  <diagram name="Page-1" id="urGKdUcV-Qhn1DOVkiXK">
    <mxGraphModel dx="1434" dy="738" grid="1" gridSize="10" guides="1" tooltips="1" connect="1" arrows="1" fold="1" page="1" pageScale="1" pageWidth="827" pageHeight="1169" math="0" shadow="0">
      <root>
        <mxCell id="0" />
        <mxCell id="1" parent="0" />
        <mxCell id="6F9ETJY4roaPpVvNIyUh-18" value="&lt;font style=&quot;font-size: 16px;&quot;&gt;Gold.dim_customers&lt;/font&gt;" style="shape=table;startSize=30;container=1;collapsible=1;childLayout=tableLayout;fixedRows=1;rowLines=0;fontStyle=1;align=center;resizeLast=1;html=1;strokeWidth=2;fillColor=#fff2cc;gradientColor=#ffd966;strokeColor=light-dark(#000000, #6d5100);perimeterSpacing=6;swimlaneFillColor=default;" vertex="1" parent="1">
          <mxGeometry x="300" y="440" width="180" height="360" as="geometry" />
        </mxCell>
        <mxCell id="6F9ETJY4roaPpVvNIyUh-19" value="" style="shape=tableRow;horizontal=0;startSize=0;swimlaneHead=0;swimlaneBody=0;fillColor=none;collapsible=0;dropTarget=0;points=[[0,0.5],[1,0.5]];portConstraint=eastwest;top=0;left=0;right=0;bottom=1;strokeWidth=2;gradientColor=#ffd966;strokeColor=light-dark(#000000, #6d5100);perimeterSpacing=6;swimlaneFillColor=default;" vertex="1" parent="6F9ETJY4roaPpVvNIyUh-18">
          <mxGeometry y="30" width="180" height="30" as="geometry" />
        </mxCell>
        <mxCell id="6F9ETJY4roaPpVvNIyUh-20" value="PK" style="shape=partialRectangle;connectable=0;fillColor=none;top=0;left=0;bottom=0;right=0;fontStyle=1;overflow=hidden;whiteSpace=wrap;html=1;strokeWidth=2;gradientColor=#ffd966;strokeColor=light-dark(#000000, #6d5100);perimeterSpacing=6;swimlaneFillColor=default;" vertex="1" parent="6F9ETJY4roaPpVvNIyUh-19">
          <mxGeometry width="30" height="30" as="geometry">
            <mxRectangle width="30" height="30" as="alternateBounds" />
          </mxGeometry>
        </mxCell>
        <mxCell id="6F9ETJY4roaPpVvNIyUh-21" value="" style="shape=partialRectangle;connectable=0;fillColor=none;top=0;left=0;bottom=0;right=0;align=left;spacingLeft=6;fontStyle=5;overflow=hidden;whiteSpace=wrap;html=1;strokeWidth=2;gradientColor=#ffd966;strokeColor=light-dark(#000000, #6d5100);perimeterSpacing=6;swimlaneFillColor=default;" vertex="1" parent="6F9ETJY4roaPpVvNIyUh-19">
          <mxGeometry x="30" width="150" height="30" as="geometry">
            <mxRectangle width="150" height="30" as="alternateBounds" />
          </mxGeometry>
        </mxCell>
        <mxCell id="6F9ETJY4roaPpVvNIyUh-22" value="" style="shape=tableRow;horizontal=0;startSize=0;swimlaneHead=0;swimlaneBody=0;fillColor=none;collapsible=0;dropTarget=0;points=[[0,0.5],[1,0.5]];portConstraint=eastwest;top=0;left=0;right=0;bottom=0;strokeWidth=2;gradientColor=#ffd966;strokeColor=light-dark(#000000, #6d5100);perimeterSpacing=3;swimlaneFillColor=default;" vertex="1" parent="6F9ETJY4roaPpVvNIyUh-18">
          <mxGeometry y="60" width="180" height="30" as="geometry" />
        </mxCell>
        <mxCell id="6F9ETJY4roaPpVvNIyUh-23" value="" style="shape=partialRectangle;connectable=0;fillColor=none;top=0;left=0;bottom=0;right=0;editable=1;overflow=hidden;whiteSpace=wrap;html=1;strokeWidth=2;gradientColor=#ffd966;strokeColor=light-dark(#000000, #6d5100);perimeterSpacing=3;swimlaneFillColor=default;" vertex="1" parent="6F9ETJY4roaPpVvNIyUh-22">
          <mxGeometry width="30" height="30" as="geometry">
            <mxRectangle width="30" height="30" as="alternateBounds" />
          </mxGeometry>
        </mxCell>
        <mxCell id="6F9ETJY4roaPpVvNIyUh-24" value="customer_id" style="shape=partialRectangle;connectable=0;fillColor=none;top=0;left=0;bottom=0;right=0;align=left;spacingLeft=6;overflow=hidden;whiteSpace=wrap;html=1;strokeWidth=2;gradientColor=#ffd966;strokeColor=light-dark(#000000, #6d5100);perimeterSpacing=3;swimlaneFillColor=default;fontStyle=1" vertex="1" parent="6F9ETJY4roaPpVvNIyUh-22">
          <mxGeometry x="30" width="150" height="30" as="geometry">
            <mxRectangle width="150" height="30" as="alternateBounds" />
          </mxGeometry>
        </mxCell>
        <mxCell id="6F9ETJY4roaPpVvNIyUh-25" value="" style="shape=tableRow;horizontal=0;startSize=0;swimlaneHead=0;swimlaneBody=0;fillColor=none;collapsible=0;dropTarget=0;points=[[0,0.5],[1,0.5]];portConstraint=eastwest;top=0;left=0;right=0;bottom=0;strokeWidth=2;gradientColor=#ffd966;strokeColor=light-dark(#000000, #6d5100);perimeterSpacing=3;swimlaneFillColor=default;fontStyle=1" vertex="1" parent="6F9ETJY4roaPpVvNIyUh-18">
          <mxGeometry y="90" width="180" height="30" as="geometry" />
        </mxCell>
        <mxCell id="6F9ETJY4roaPpVvNIyUh-26" value="" style="shape=partialRectangle;connectable=0;fillColor=none;top=0;left=0;bottom=0;right=0;editable=1;overflow=hidden;whiteSpace=wrap;html=1;strokeWidth=2;gradientColor=#ffd966;strokeColor=light-dark(#000000, #6d5100);perimeterSpacing=3;swimlaneFillColor=default;fontStyle=1" vertex="1" parent="6F9ETJY4roaPpVvNIyUh-25">
          <mxGeometry width="30" height="30" as="geometry">
            <mxRectangle width="30" height="30" as="alternateBounds" />
          </mxGeometry>
        </mxCell>
        <mxCell id="6F9ETJY4roaPpVvNIyUh-27" value="customer_number" style="shape=partialRectangle;connectable=0;fillColor=none;top=0;left=0;bottom=0;right=0;align=left;spacingLeft=6;overflow=hidden;whiteSpace=wrap;html=1;strokeWidth=2;gradientColor=#ffd966;strokeColor=light-dark(#000000, #6d5100);perimeterSpacing=3;swimlaneFillColor=default;fontStyle=1" vertex="1" parent="6F9ETJY4roaPpVvNIyUh-25">
          <mxGeometry x="30" width="150" height="30" as="geometry">
            <mxRectangle width="150" height="30" as="alternateBounds" />
          </mxGeometry>
        </mxCell>
        <mxCell id="6F9ETJY4roaPpVvNIyUh-28" value="" style="shape=tableRow;horizontal=0;startSize=0;swimlaneHead=0;swimlaneBody=0;fillColor=none;collapsible=0;dropTarget=0;points=[[0,0.5],[1,0.5]];portConstraint=eastwest;top=0;left=0;right=0;bottom=0;strokeWidth=2;gradientColor=#ffd966;strokeColor=light-dark(#000000, #6d5100);perimeterSpacing=3;swimlaneFillColor=default;fontStyle=1" vertex="1" parent="6F9ETJY4roaPpVvNIyUh-18">
          <mxGeometry y="120" width="180" height="30" as="geometry" />
        </mxCell>
        <mxCell id="6F9ETJY4roaPpVvNIyUh-29" value="" style="shape=partialRectangle;connectable=0;fillColor=none;top=0;left=0;bottom=0;right=0;editable=1;overflow=hidden;whiteSpace=wrap;html=1;strokeWidth=2;gradientColor=#ffd966;strokeColor=light-dark(#000000, #6d5100);perimeterSpacing=3;swimlaneFillColor=default;fontStyle=1" vertex="1" parent="6F9ETJY4roaPpVvNIyUh-28">
          <mxGeometry width="30" height="30" as="geometry">
            <mxRectangle width="30" height="30" as="alternateBounds" />
          </mxGeometry>
        </mxCell>
        <mxCell id="6F9ETJY4roaPpVvNIyUh-30" value="first_name" style="shape=partialRectangle;connectable=0;fillColor=none;top=0;left=0;bottom=0;right=0;align=left;spacingLeft=6;overflow=hidden;whiteSpace=wrap;html=1;strokeWidth=2;gradientColor=#ffd966;strokeColor=light-dark(#000000, #6d5100);perimeterSpacing=3;swimlaneFillColor=default;fontStyle=1" vertex="1" parent="6F9ETJY4roaPpVvNIyUh-28">
          <mxGeometry x="30" width="150" height="30" as="geometry">
            <mxRectangle width="150" height="30" as="alternateBounds" />
          </mxGeometry>
        </mxCell>
        <mxCell id="6F9ETJY4roaPpVvNIyUh-50" style="shape=tableRow;horizontal=0;startSize=0;swimlaneHead=0;swimlaneBody=0;fillColor=none;collapsible=0;dropTarget=0;points=[[0,0.5],[1,0.5]];portConstraint=eastwest;top=0;left=0;right=0;bottom=0;strokeWidth=2;gradientColor=#ffd966;strokeColor=light-dark(#000000, #6d5100);perimeterSpacing=3;swimlaneFillColor=default;fontStyle=1" vertex="1" parent="6F9ETJY4roaPpVvNIyUh-18">
          <mxGeometry y="150" width="180" height="30" as="geometry" />
        </mxCell>
        <mxCell id="6F9ETJY4roaPpVvNIyUh-51" style="shape=partialRectangle;connectable=0;fillColor=none;top=0;left=0;bottom=0;right=0;editable=1;overflow=hidden;whiteSpace=wrap;html=1;strokeWidth=2;gradientColor=#ffd966;strokeColor=light-dark(#000000, #6d5100);perimeterSpacing=3;swimlaneFillColor=default;fontStyle=1" vertex="1" parent="6F9ETJY4roaPpVvNIyUh-50">
          <mxGeometry width="30" height="30" as="geometry">
            <mxRectangle width="30" height="30" as="alternateBounds" />
          </mxGeometry>
        </mxCell>
        <mxCell id="6F9ETJY4roaPpVvNIyUh-52" value="last_name" style="shape=partialRectangle;connectable=0;fillColor=none;top=0;left=0;bottom=0;right=0;align=left;spacingLeft=6;overflow=hidden;whiteSpace=wrap;html=1;strokeWidth=2;gradientColor=#ffd966;strokeColor=light-dark(#000000, #6d5100);perimeterSpacing=3;swimlaneFillColor=default;fontStyle=1" vertex="1" parent="6F9ETJY4roaPpVvNIyUh-50">
          <mxGeometry x="30" width="150" height="30" as="geometry">
            <mxRectangle width="150" height="30" as="alternateBounds" />
          </mxGeometry>
        </mxCell>
        <mxCell id="6F9ETJY4roaPpVvNIyUh-53" style="shape=tableRow;horizontal=0;startSize=0;swimlaneHead=0;swimlaneBody=0;fillColor=none;collapsible=0;dropTarget=0;points=[[0,0.5],[1,0.5]];portConstraint=eastwest;top=0;left=0;right=0;bottom=0;strokeWidth=2;gradientColor=#ffd966;strokeColor=light-dark(#000000, #6d5100);perimeterSpacing=3;swimlaneFillColor=default;fontStyle=1" vertex="1" parent="6F9ETJY4roaPpVvNIyUh-18">
          <mxGeometry y="180" width="180" height="30" as="geometry" />
        </mxCell>
        <mxCell id="6F9ETJY4roaPpVvNIyUh-54" style="shape=partialRectangle;connectable=0;fillColor=none;top=0;left=0;bottom=0;right=0;editable=1;overflow=hidden;whiteSpace=wrap;html=1;strokeWidth=2;gradientColor=#ffd966;strokeColor=light-dark(#000000, #6d5100);perimeterSpacing=3;swimlaneFillColor=default;fontStyle=1" vertex="1" parent="6F9ETJY4roaPpVvNIyUh-53">
          <mxGeometry width="30" height="30" as="geometry">
            <mxRectangle width="30" height="30" as="alternateBounds" />
          </mxGeometry>
        </mxCell>
        <mxCell id="6F9ETJY4roaPpVvNIyUh-55" value="country" style="shape=partialRectangle;connectable=0;fillColor=none;top=0;left=0;bottom=0;right=0;align=left;spacingLeft=6;overflow=hidden;whiteSpace=wrap;html=1;strokeWidth=2;gradientColor=#ffd966;strokeColor=light-dark(#000000, #6d5100);perimeterSpacing=3;swimlaneFillColor=default;fontStyle=1" vertex="1" parent="6F9ETJY4roaPpVvNIyUh-53">
          <mxGeometry x="30" width="150" height="30" as="geometry">
            <mxRectangle width="150" height="30" as="alternateBounds" />
          </mxGeometry>
        </mxCell>
        <mxCell id="6F9ETJY4roaPpVvNIyUh-56" style="shape=tableRow;horizontal=0;startSize=0;swimlaneHead=0;swimlaneBody=0;fillColor=none;collapsible=0;dropTarget=0;points=[[0,0.5],[1,0.5]];portConstraint=eastwest;top=0;left=0;right=0;bottom=0;strokeWidth=2;gradientColor=#ffd966;strokeColor=light-dark(#000000, #6d5100);perimeterSpacing=3;swimlaneFillColor=default;fontStyle=1" vertex="1" parent="6F9ETJY4roaPpVvNIyUh-18">
          <mxGeometry y="210" width="180" height="30" as="geometry" />
        </mxCell>
        <mxCell id="6F9ETJY4roaPpVvNIyUh-57" style="shape=partialRectangle;connectable=0;fillColor=none;top=0;left=0;bottom=0;right=0;editable=1;overflow=hidden;whiteSpace=wrap;html=1;strokeWidth=2;gradientColor=#ffd966;strokeColor=light-dark(#000000, #6d5100);perimeterSpacing=3;swimlaneFillColor=default;fontStyle=1" vertex="1" parent="6F9ETJY4roaPpVvNIyUh-56">
          <mxGeometry width="30" height="30" as="geometry">
            <mxRectangle width="30" height="30" as="alternateBounds" />
          </mxGeometry>
        </mxCell>
        <mxCell id="6F9ETJY4roaPpVvNIyUh-58" value="gender" style="shape=partialRectangle;connectable=0;fillColor=none;top=0;left=0;bottom=0;right=0;align=left;spacingLeft=6;overflow=hidden;whiteSpace=wrap;html=1;strokeWidth=2;gradientColor=#ffd966;strokeColor=light-dark(#000000, #6d5100);perimeterSpacing=3;swimlaneFillColor=default;fontStyle=1" vertex="1" parent="6F9ETJY4roaPpVvNIyUh-56">
          <mxGeometry x="30" width="150" height="30" as="geometry">
            <mxRectangle width="150" height="30" as="alternateBounds" />
          </mxGeometry>
        </mxCell>
        <mxCell id="6F9ETJY4roaPpVvNIyUh-59" style="shape=tableRow;horizontal=0;startSize=0;swimlaneHead=0;swimlaneBody=0;fillColor=none;collapsible=0;dropTarget=0;points=[[0,0.5],[1,0.5]];portConstraint=eastwest;top=0;left=0;right=0;bottom=0;strokeWidth=2;gradientColor=#ffd966;strokeColor=light-dark(#000000, #6d5100);perimeterSpacing=3;swimlaneFillColor=default;fontStyle=1" vertex="1" parent="6F9ETJY4roaPpVvNIyUh-18">
          <mxGeometry y="240" width="180" height="30" as="geometry" />
        </mxCell>
        <mxCell id="6F9ETJY4roaPpVvNIyUh-60" style="shape=partialRectangle;connectable=0;fillColor=none;top=0;left=0;bottom=0;right=0;editable=1;overflow=hidden;whiteSpace=wrap;html=1;strokeWidth=2;gradientColor=#ffd966;strokeColor=light-dark(#000000, #6d5100);perimeterSpacing=3;swimlaneFillColor=default;fontStyle=1" vertex="1" parent="6F9ETJY4roaPpVvNIyUh-59">
          <mxGeometry width="30" height="30" as="geometry">
            <mxRectangle width="30" height="30" as="alternateBounds" />
          </mxGeometry>
        </mxCell>
        <mxCell id="6F9ETJY4roaPpVvNIyUh-61" value="marital_status" style="shape=partialRectangle;connectable=0;fillColor=none;top=0;left=0;bottom=0;right=0;align=left;spacingLeft=6;overflow=hidden;whiteSpace=wrap;html=1;strokeWidth=2;gradientColor=#ffd966;strokeColor=light-dark(#000000, #6d5100);perimeterSpacing=3;swimlaneFillColor=default;fontStyle=1" vertex="1" parent="6F9ETJY4roaPpVvNIyUh-59">
          <mxGeometry x="30" width="150" height="30" as="geometry">
            <mxRectangle width="150" height="30" as="alternateBounds" />
          </mxGeometry>
        </mxCell>
        <mxCell id="6F9ETJY4roaPpVvNIyUh-62" style="shape=tableRow;horizontal=0;startSize=0;swimlaneHead=0;swimlaneBody=0;fillColor=none;collapsible=0;dropTarget=0;points=[[0,0.5],[1,0.5]];portConstraint=eastwest;top=0;left=0;right=0;bottom=0;strokeWidth=2;gradientColor=#ffd966;strokeColor=light-dark(#000000, #6d5100);perimeterSpacing=3;swimlaneFillColor=default;fontStyle=1" vertex="1" parent="6F9ETJY4roaPpVvNIyUh-18">
          <mxGeometry y="270" width="180" height="30" as="geometry" />
        </mxCell>
        <mxCell id="6F9ETJY4roaPpVvNIyUh-63" style="shape=partialRectangle;connectable=0;fillColor=none;top=0;left=0;bottom=0;right=0;editable=1;overflow=hidden;whiteSpace=wrap;html=1;strokeWidth=2;gradientColor=#ffd966;strokeColor=light-dark(#000000, #6d5100);perimeterSpacing=3;swimlaneFillColor=default;fontStyle=1" vertex="1" parent="6F9ETJY4roaPpVvNIyUh-62">
          <mxGeometry width="30" height="30" as="geometry">
            <mxRectangle width="30" height="30" as="alternateBounds" />
          </mxGeometry>
        </mxCell>
        <mxCell id="6F9ETJY4roaPpVvNIyUh-64" value="birthdate" style="shape=partialRectangle;connectable=0;fillColor=none;top=0;left=0;bottom=0;right=0;align=left;spacingLeft=6;overflow=hidden;whiteSpace=wrap;html=1;strokeWidth=2;gradientColor=#ffd966;strokeColor=light-dark(#000000, #6d5100);perimeterSpacing=3;swimlaneFillColor=default;fontStyle=1" vertex="1" parent="6F9ETJY4roaPpVvNIyUh-62">
          <mxGeometry x="30" width="150" height="30" as="geometry">
            <mxRectangle width="150" height="30" as="alternateBounds" />
          </mxGeometry>
        </mxCell>
        <mxCell id="6F9ETJY4roaPpVvNIyUh-65" style="shape=tableRow;horizontal=0;startSize=0;swimlaneHead=0;swimlaneBody=0;fillColor=none;collapsible=0;dropTarget=0;points=[[0,0.5],[1,0.5]];portConstraint=eastwest;top=0;left=0;right=0;bottom=0;strokeWidth=2;gradientColor=#ffd966;strokeColor=light-dark(#000000, #6d5100);perimeterSpacing=3;swimlaneFillColor=default;fontStyle=1" vertex="1" parent="6F9ETJY4roaPpVvNIyUh-18">
          <mxGeometry y="300" width="180" height="30" as="geometry" />
        </mxCell>
        <mxCell id="6F9ETJY4roaPpVvNIyUh-66" style="shape=partialRectangle;connectable=0;fillColor=none;top=0;left=0;bottom=0;right=0;editable=1;overflow=hidden;whiteSpace=wrap;html=1;strokeWidth=2;gradientColor=#ffd966;strokeColor=light-dark(#000000, #6d5100);perimeterSpacing=3;swimlaneFillColor=default;fontStyle=1" vertex="1" parent="6F9ETJY4roaPpVvNIyUh-65">
          <mxGeometry width="30" height="30" as="geometry">
            <mxRectangle width="30" height="30" as="alternateBounds" />
          </mxGeometry>
        </mxCell>
        <mxCell id="6F9ETJY4roaPpVvNIyUh-67" value="create_date" style="shape=partialRectangle;connectable=0;fillColor=none;top=0;left=0;bottom=0;right=0;align=left;spacingLeft=6;overflow=hidden;whiteSpace=wrap;html=1;strokeWidth=2;gradientColor=#ffd966;strokeColor=light-dark(#000000, #6d5100);perimeterSpacing=3;swimlaneFillColor=default;fontStyle=1" vertex="1" parent="6F9ETJY4roaPpVvNIyUh-65">
          <mxGeometry x="30" width="150" height="30" as="geometry">
            <mxRectangle width="150" height="30" as="alternateBounds" />
          </mxGeometry>
        </mxCell>
        <mxCell id="6F9ETJY4roaPpVvNIyUh-68" style="shape=tableRow;horizontal=0;startSize=0;swimlaneHead=0;swimlaneBody=0;fillColor=none;collapsible=0;dropTarget=0;points=[[0,0.5],[1,0.5]];portConstraint=eastwest;top=0;left=0;right=0;bottom=0;strokeWidth=2;gradientColor=#ffd966;strokeColor=light-dark(#000000, #6d5100);perimeterSpacing=3;swimlaneFillColor=default;fontStyle=1" vertex="1" parent="6F9ETJY4roaPpVvNIyUh-18">
          <mxGeometry y="330" width="180" height="30" as="geometry" />
        </mxCell>
        <mxCell id="6F9ETJY4roaPpVvNIyUh-69" style="shape=partialRectangle;connectable=0;fillColor=none;top=0;left=0;bottom=0;right=0;editable=1;overflow=hidden;whiteSpace=wrap;html=1;strokeWidth=2;gradientColor=#ffd966;strokeColor=light-dark(#000000, #6d5100);perimeterSpacing=3;swimlaneFillColor=default;fontStyle=1" vertex="1" parent="6F9ETJY4roaPpVvNIyUh-68">
          <mxGeometry width="30" height="30" as="geometry">
            <mxRectangle width="30" height="30" as="alternateBounds" />
          </mxGeometry>
        </mxCell>
        <mxCell id="6F9ETJY4roaPpVvNIyUh-70" value="" style="shape=partialRectangle;connectable=0;fillColor=none;top=0;left=0;bottom=0;right=0;align=left;spacingLeft=6;overflow=hidden;whiteSpace=wrap;html=1;strokeWidth=2;gradientColor=#ffd966;strokeColor=light-dark(#000000, #6d5100);perimeterSpacing=3;swimlaneFillColor=default;fontStyle=1" vertex="1" parent="6F9ETJY4roaPpVvNIyUh-68">
          <mxGeometry x="30" width="150" height="30" as="geometry">
            <mxRectangle width="150" height="30" as="alternateBounds" />
          </mxGeometry>
        </mxCell>
        <mxCell id="6F9ETJY4roaPpVvNIyUh-33" value="&lt;font style=&quot;font-size: 16px;&quot;&gt;&lt;b&gt;customer_key&lt;/b&gt;&lt;/font&gt;" style="text;html=1;align=center;verticalAlign=middle;whiteSpace=wrap;rounded=0;perimeterSpacing=6;swimlaneFillColor=default;strokeWidth=2;" vertex="1" parent="1">
          <mxGeometry x="330" y="470" width="150" height="30" as="geometry" />
        </mxCell>
        <mxCell id="6F9ETJY4roaPpVvNIyUh-125" value="&lt;font style=&quot;font-size: 16px;&quot;&gt;Gold.dim_&lt;/font&gt;&lt;font style=&quot;font-size: 16px;&quot;&gt;products&lt;/font&gt;" style="shape=table;startSize=30;container=1;collapsible=1;childLayout=tableLayout;fixedRows=1;rowLines=0;fontStyle=1;align=center;resizeLast=1;html=1;strokeWidth=2;swimlaneFillColor=default;fillColor=#fff2cc;gradientColor=#ffd966;strokeColor=light-dark(#050505, #6d5100);" vertex="1" parent="1">
          <mxGeometry x="940" y="440" width="180" height="360" as="geometry" />
        </mxCell>
        <mxCell id="6F9ETJY4roaPpVvNIyUh-126" value="" style="shape=tableRow;horizontal=0;startSize=0;swimlaneHead=0;swimlaneBody=0;fillColor=none;collapsible=0;dropTarget=0;points=[[0,0.5],[1,0.5]];portConstraint=eastwest;top=0;left=0;right=0;bottom=1;strokeWidth=2;swimlaneFillColor=default;" vertex="1" parent="6F9ETJY4roaPpVvNIyUh-125">
          <mxGeometry y="30" width="180" height="30" as="geometry" />
        </mxCell>
        <mxCell id="6F9ETJY4roaPpVvNIyUh-127" value="PK" style="shape=partialRectangle;connectable=0;fillColor=none;top=0;left=0;bottom=0;right=0;fontStyle=1;overflow=hidden;whiteSpace=wrap;html=1;strokeWidth=2;swimlaneFillColor=default;" vertex="1" parent="6F9ETJY4roaPpVvNIyUh-126">
          <mxGeometry width="30" height="30" as="geometry">
            <mxRectangle width="30" height="30" as="alternateBounds" />
          </mxGeometry>
        </mxCell>
        <mxCell id="6F9ETJY4roaPpVvNIyUh-128" value="" style="shape=partialRectangle;connectable=0;fillColor=none;top=0;left=0;bottom=0;right=0;align=left;spacingLeft=6;fontStyle=5;overflow=hidden;whiteSpace=wrap;html=1;strokeWidth=2;swimlaneFillColor=default;" vertex="1" parent="6F9ETJY4roaPpVvNIyUh-126">
          <mxGeometry x="30" width="150" height="30" as="geometry">
            <mxRectangle width="150" height="30" as="alternateBounds" />
          </mxGeometry>
        </mxCell>
        <mxCell id="6F9ETJY4roaPpVvNIyUh-129" value="" style="shape=tableRow;horizontal=0;startSize=0;swimlaneHead=0;swimlaneBody=0;fillColor=none;collapsible=0;dropTarget=0;points=[[0,0.5],[1,0.5]];portConstraint=eastwest;top=0;left=0;right=0;bottom=0;strokeWidth=2;swimlaneFillColor=default;fontStyle=1" vertex="1" parent="6F9ETJY4roaPpVvNIyUh-125">
          <mxGeometry y="60" width="180" height="30" as="geometry" />
        </mxCell>
        <mxCell id="6F9ETJY4roaPpVvNIyUh-130" value="" style="shape=partialRectangle;connectable=0;fillColor=none;top=0;left=0;bottom=0;right=0;editable=1;overflow=hidden;whiteSpace=wrap;html=1;strokeWidth=2;swimlaneFillColor=default;fontStyle=1" vertex="1" parent="6F9ETJY4roaPpVvNIyUh-129">
          <mxGeometry width="30" height="30" as="geometry">
            <mxRectangle width="30" height="30" as="alternateBounds" />
          </mxGeometry>
        </mxCell>
        <mxCell id="6F9ETJY4roaPpVvNIyUh-131" value="product_id" style="shape=partialRectangle;connectable=0;fillColor=none;top=0;left=0;bottom=0;right=0;align=left;spacingLeft=6;overflow=hidden;whiteSpace=wrap;html=1;strokeWidth=2;swimlaneFillColor=default;fontStyle=1" vertex="1" parent="6F9ETJY4roaPpVvNIyUh-129">
          <mxGeometry x="30" width="150" height="30" as="geometry">
            <mxRectangle width="150" height="30" as="alternateBounds" />
          </mxGeometry>
        </mxCell>
        <mxCell id="6F9ETJY4roaPpVvNIyUh-132" value="" style="shape=tableRow;horizontal=0;startSize=0;swimlaneHead=0;swimlaneBody=0;fillColor=none;collapsible=0;dropTarget=0;points=[[0,0.5],[1,0.5]];portConstraint=eastwest;top=0;left=0;right=0;bottom=0;strokeWidth=2;swimlaneFillColor=default;fontStyle=1" vertex="1" parent="6F9ETJY4roaPpVvNIyUh-125">
          <mxGeometry y="90" width="180" height="30" as="geometry" />
        </mxCell>
        <mxCell id="6F9ETJY4roaPpVvNIyUh-133" value="" style="shape=partialRectangle;connectable=0;fillColor=none;top=0;left=0;bottom=0;right=0;editable=1;overflow=hidden;whiteSpace=wrap;html=1;strokeWidth=2;swimlaneFillColor=default;fontStyle=1" vertex="1" parent="6F9ETJY4roaPpVvNIyUh-132">
          <mxGeometry width="30" height="30" as="geometry">
            <mxRectangle width="30" height="30" as="alternateBounds" />
          </mxGeometry>
        </mxCell>
        <mxCell id="6F9ETJY4roaPpVvNIyUh-134" value="product_number" style="shape=partialRectangle;connectable=0;fillColor=none;top=0;left=0;bottom=0;right=0;align=left;spacingLeft=6;overflow=hidden;whiteSpace=wrap;html=1;strokeWidth=2;swimlaneFillColor=default;fontStyle=1" vertex="1" parent="6F9ETJY4roaPpVvNIyUh-132">
          <mxGeometry x="30" width="150" height="30" as="geometry">
            <mxRectangle width="150" height="30" as="alternateBounds" />
          </mxGeometry>
        </mxCell>
        <mxCell id="6F9ETJY4roaPpVvNIyUh-135" value="" style="shape=tableRow;horizontal=0;startSize=0;swimlaneHead=0;swimlaneBody=0;fillColor=none;collapsible=0;dropTarget=0;points=[[0,0.5],[1,0.5]];portConstraint=eastwest;top=0;left=0;right=0;bottom=0;strokeWidth=2;swimlaneFillColor=default;fontStyle=1" vertex="1" parent="6F9ETJY4roaPpVvNIyUh-125">
          <mxGeometry y="120" width="180" height="30" as="geometry" />
        </mxCell>
        <mxCell id="6F9ETJY4roaPpVvNIyUh-136" value="" style="shape=partialRectangle;connectable=0;fillColor=none;top=0;left=0;bottom=0;right=0;editable=1;overflow=hidden;whiteSpace=wrap;html=1;strokeWidth=2;swimlaneFillColor=default;fontStyle=1" vertex="1" parent="6F9ETJY4roaPpVvNIyUh-135">
          <mxGeometry width="30" height="30" as="geometry">
            <mxRectangle width="30" height="30" as="alternateBounds" />
          </mxGeometry>
        </mxCell>
        <mxCell id="6F9ETJY4roaPpVvNIyUh-137" value="product_name" style="shape=partialRectangle;connectable=0;fillColor=none;top=0;left=0;bottom=0;right=0;align=left;spacingLeft=6;overflow=hidden;whiteSpace=wrap;html=1;strokeWidth=2;swimlaneFillColor=default;fontStyle=1" vertex="1" parent="6F9ETJY4roaPpVvNIyUh-135">
          <mxGeometry x="30" width="150" height="30" as="geometry">
            <mxRectangle width="150" height="30" as="alternateBounds" />
          </mxGeometry>
        </mxCell>
        <mxCell id="6F9ETJY4roaPpVvNIyUh-140" style="shape=tableRow;horizontal=0;startSize=0;swimlaneHead=0;swimlaneBody=0;fillColor=none;collapsible=0;dropTarget=0;points=[[0,0.5],[1,0.5]];portConstraint=eastwest;top=0;left=0;right=0;bottom=0;strokeWidth=2;swimlaneFillColor=default;fontStyle=1" vertex="1" parent="6F9ETJY4roaPpVvNIyUh-125">
          <mxGeometry y="150" width="180" height="30" as="geometry" />
        </mxCell>
        <mxCell id="6F9ETJY4roaPpVvNIyUh-141" style="shape=partialRectangle;connectable=0;fillColor=none;top=0;left=0;bottom=0;right=0;editable=1;overflow=hidden;whiteSpace=wrap;html=1;strokeWidth=2;swimlaneFillColor=default;fontStyle=1" vertex="1" parent="6F9ETJY4roaPpVvNIyUh-140">
          <mxGeometry width="30" height="30" as="geometry">
            <mxRectangle width="30" height="30" as="alternateBounds" />
          </mxGeometry>
        </mxCell>
        <mxCell id="6F9ETJY4roaPpVvNIyUh-142" value="category_id" style="shape=partialRectangle;connectable=0;fillColor=none;top=0;left=0;bottom=0;right=0;align=left;spacingLeft=6;overflow=hidden;whiteSpace=wrap;html=1;strokeWidth=2;swimlaneFillColor=default;fontStyle=1" vertex="1" parent="6F9ETJY4roaPpVvNIyUh-140">
          <mxGeometry x="30" width="150" height="30" as="geometry">
            <mxRectangle width="150" height="30" as="alternateBounds" />
          </mxGeometry>
        </mxCell>
        <mxCell id="6F9ETJY4roaPpVvNIyUh-143" style="shape=tableRow;horizontal=0;startSize=0;swimlaneHead=0;swimlaneBody=0;fillColor=none;collapsible=0;dropTarget=0;points=[[0,0.5],[1,0.5]];portConstraint=eastwest;top=0;left=0;right=0;bottom=0;strokeWidth=2;swimlaneFillColor=default;fontStyle=1" vertex="1" parent="6F9ETJY4roaPpVvNIyUh-125">
          <mxGeometry y="180" width="180" height="30" as="geometry" />
        </mxCell>
        <mxCell id="6F9ETJY4roaPpVvNIyUh-144" style="shape=partialRectangle;connectable=0;fillColor=none;top=0;left=0;bottom=0;right=0;editable=1;overflow=hidden;whiteSpace=wrap;html=1;strokeWidth=2;swimlaneFillColor=default;fontStyle=1" vertex="1" parent="6F9ETJY4roaPpVvNIyUh-143">
          <mxGeometry width="30" height="30" as="geometry">
            <mxRectangle width="30" height="30" as="alternateBounds" />
          </mxGeometry>
        </mxCell>
        <mxCell id="6F9ETJY4roaPpVvNIyUh-145" value="category" style="shape=partialRectangle;connectable=0;fillColor=none;top=0;left=0;bottom=0;right=0;align=left;spacingLeft=6;overflow=hidden;whiteSpace=wrap;html=1;strokeWidth=2;swimlaneFillColor=default;fontStyle=1" vertex="1" parent="6F9ETJY4roaPpVvNIyUh-143">
          <mxGeometry x="30" width="150" height="30" as="geometry">
            <mxRectangle width="150" height="30" as="alternateBounds" />
          </mxGeometry>
        </mxCell>
        <mxCell id="6F9ETJY4roaPpVvNIyUh-146" style="shape=tableRow;horizontal=0;startSize=0;swimlaneHead=0;swimlaneBody=0;fillColor=none;collapsible=0;dropTarget=0;points=[[0,0.5],[1,0.5]];portConstraint=eastwest;top=0;left=0;right=0;bottom=0;strokeWidth=2;swimlaneFillColor=default;fontStyle=1" vertex="1" parent="6F9ETJY4roaPpVvNIyUh-125">
          <mxGeometry y="210" width="180" height="30" as="geometry" />
        </mxCell>
        <mxCell id="6F9ETJY4roaPpVvNIyUh-147" style="shape=partialRectangle;connectable=0;fillColor=none;top=0;left=0;bottom=0;right=0;editable=1;overflow=hidden;whiteSpace=wrap;html=1;strokeWidth=2;swimlaneFillColor=default;fontStyle=1" vertex="1" parent="6F9ETJY4roaPpVvNIyUh-146">
          <mxGeometry width="30" height="30" as="geometry">
            <mxRectangle width="30" height="30" as="alternateBounds" />
          </mxGeometry>
        </mxCell>
        <mxCell id="6F9ETJY4roaPpVvNIyUh-148" value="subcategory" style="shape=partialRectangle;connectable=0;fillColor=none;top=0;left=0;bottom=0;right=0;align=left;spacingLeft=6;overflow=hidden;whiteSpace=wrap;html=1;strokeWidth=2;swimlaneFillColor=default;fontStyle=1" vertex="1" parent="6F9ETJY4roaPpVvNIyUh-146">
          <mxGeometry x="30" width="150" height="30" as="geometry">
            <mxRectangle width="150" height="30" as="alternateBounds" />
          </mxGeometry>
        </mxCell>
        <mxCell id="6F9ETJY4roaPpVvNIyUh-149" style="shape=tableRow;horizontal=0;startSize=0;swimlaneHead=0;swimlaneBody=0;fillColor=none;collapsible=0;dropTarget=0;points=[[0,0.5],[1,0.5]];portConstraint=eastwest;top=0;left=0;right=0;bottom=0;strokeWidth=2;swimlaneFillColor=default;fontStyle=1" vertex="1" parent="6F9ETJY4roaPpVvNIyUh-125">
          <mxGeometry y="240" width="180" height="30" as="geometry" />
        </mxCell>
        <mxCell id="6F9ETJY4roaPpVvNIyUh-150" style="shape=partialRectangle;connectable=0;fillColor=none;top=0;left=0;bottom=0;right=0;editable=1;overflow=hidden;whiteSpace=wrap;html=1;strokeWidth=2;swimlaneFillColor=default;fontStyle=1" vertex="1" parent="6F9ETJY4roaPpVvNIyUh-149">
          <mxGeometry width="30" height="30" as="geometry">
            <mxRectangle width="30" height="30" as="alternateBounds" />
          </mxGeometry>
        </mxCell>
        <mxCell id="6F9ETJY4roaPpVvNIyUh-151" value="maintenance" style="shape=partialRectangle;connectable=0;fillColor=none;top=0;left=0;bottom=0;right=0;align=left;spacingLeft=6;overflow=hidden;whiteSpace=wrap;html=1;strokeWidth=2;swimlaneFillColor=default;fontStyle=1" vertex="1" parent="6F9ETJY4roaPpVvNIyUh-149">
          <mxGeometry x="30" width="150" height="30" as="geometry">
            <mxRectangle width="150" height="30" as="alternateBounds" />
          </mxGeometry>
        </mxCell>
        <mxCell id="6F9ETJY4roaPpVvNIyUh-152" style="shape=tableRow;horizontal=0;startSize=0;swimlaneHead=0;swimlaneBody=0;fillColor=none;collapsible=0;dropTarget=0;points=[[0,0.5],[1,0.5]];portConstraint=eastwest;top=0;left=0;right=0;bottom=0;strokeWidth=2;swimlaneFillColor=default;fontStyle=1" vertex="1" parent="6F9ETJY4roaPpVvNIyUh-125">
          <mxGeometry y="270" width="180" height="30" as="geometry" />
        </mxCell>
        <mxCell id="6F9ETJY4roaPpVvNIyUh-153" style="shape=partialRectangle;connectable=0;fillColor=none;top=0;left=0;bottom=0;right=0;editable=1;overflow=hidden;whiteSpace=wrap;html=1;strokeWidth=2;swimlaneFillColor=default;fontStyle=1" vertex="1" parent="6F9ETJY4roaPpVvNIyUh-152">
          <mxGeometry width="30" height="30" as="geometry">
            <mxRectangle width="30" height="30" as="alternateBounds" />
          </mxGeometry>
        </mxCell>
        <mxCell id="6F9ETJY4roaPpVvNIyUh-154" value="cost" style="shape=partialRectangle;connectable=0;fillColor=none;top=0;left=0;bottom=0;right=0;align=left;spacingLeft=6;overflow=hidden;whiteSpace=wrap;html=1;strokeWidth=2;swimlaneFillColor=default;fontStyle=1" vertex="1" parent="6F9ETJY4roaPpVvNIyUh-152">
          <mxGeometry x="30" width="150" height="30" as="geometry">
            <mxRectangle width="150" height="30" as="alternateBounds" />
          </mxGeometry>
        </mxCell>
        <mxCell id="6F9ETJY4roaPpVvNIyUh-155" style="shape=tableRow;horizontal=0;startSize=0;swimlaneHead=0;swimlaneBody=0;fillColor=none;collapsible=0;dropTarget=0;points=[[0,0.5],[1,0.5]];portConstraint=eastwest;top=0;left=0;right=0;bottom=0;strokeWidth=2;swimlaneFillColor=default;fontStyle=1" vertex="1" parent="6F9ETJY4roaPpVvNIyUh-125">
          <mxGeometry y="300" width="180" height="30" as="geometry" />
        </mxCell>
        <mxCell id="6F9ETJY4roaPpVvNIyUh-156" style="shape=partialRectangle;connectable=0;fillColor=none;top=0;left=0;bottom=0;right=0;editable=1;overflow=hidden;whiteSpace=wrap;html=1;strokeWidth=2;swimlaneFillColor=default;fontStyle=1" vertex="1" parent="6F9ETJY4roaPpVvNIyUh-155">
          <mxGeometry width="30" height="30" as="geometry">
            <mxRectangle width="30" height="30" as="alternateBounds" />
          </mxGeometry>
        </mxCell>
        <mxCell id="6F9ETJY4roaPpVvNIyUh-157" value="product_line" style="shape=partialRectangle;connectable=0;fillColor=none;top=0;left=0;bottom=0;right=0;align=left;spacingLeft=6;overflow=hidden;whiteSpace=wrap;html=1;strokeWidth=2;swimlaneFillColor=default;fontStyle=1" vertex="1" parent="6F9ETJY4roaPpVvNIyUh-155">
          <mxGeometry x="30" width="150" height="30" as="geometry">
            <mxRectangle width="150" height="30" as="alternateBounds" />
          </mxGeometry>
        </mxCell>
        <mxCell id="6F9ETJY4roaPpVvNIyUh-158" style="shape=tableRow;horizontal=0;startSize=0;swimlaneHead=0;swimlaneBody=0;fillColor=none;collapsible=0;dropTarget=0;points=[[0,0.5],[1,0.5]];portConstraint=eastwest;top=0;left=0;right=0;bottom=0;strokeWidth=2;swimlaneFillColor=default;fontStyle=1" vertex="1" parent="6F9ETJY4roaPpVvNIyUh-125">
          <mxGeometry y="330" width="180" height="30" as="geometry" />
        </mxCell>
        <mxCell id="6F9ETJY4roaPpVvNIyUh-159" style="shape=partialRectangle;connectable=0;fillColor=none;top=0;left=0;bottom=0;right=0;editable=1;overflow=hidden;whiteSpace=wrap;html=1;strokeWidth=2;swimlaneFillColor=default;fontStyle=1" vertex="1" parent="6F9ETJY4roaPpVvNIyUh-158">
          <mxGeometry width="30" height="30" as="geometry">
            <mxRectangle width="30" height="30" as="alternateBounds" />
          </mxGeometry>
        </mxCell>
        <mxCell id="6F9ETJY4roaPpVvNIyUh-160" value="start_date" style="shape=partialRectangle;connectable=0;fillColor=none;top=0;left=0;bottom=0;right=0;align=left;spacingLeft=6;overflow=hidden;whiteSpace=wrap;html=1;strokeWidth=2;swimlaneFillColor=default;fontStyle=1" vertex="1" parent="6F9ETJY4roaPpVvNIyUh-158">
          <mxGeometry x="30" width="150" height="30" as="geometry">
            <mxRectangle width="150" height="30" as="alternateBounds" />
          </mxGeometry>
        </mxCell>
        <mxCell id="6F9ETJY4roaPpVvNIyUh-139" value="&lt;font style=&quot;font-size: 16px;&quot;&gt;&lt;b&gt;product_key&lt;/b&gt;&lt;/font&gt;" style="text;html=1;align=center;verticalAlign=middle;whiteSpace=wrap;rounded=0;" vertex="1" parent="1">
          <mxGeometry x="970" y="470" width="150" height="30" as="geometry" />
        </mxCell>
        <mxCell id="6F9ETJY4roaPpVvNIyUh-174" value="&lt;font style=&quot;font-size: 16px;&quot;&gt;Gold.fact_sales&lt;/font&gt;" style="shape=table;startSize=30;container=1;collapsible=1;childLayout=tableLayout;fixedRows=1;rowLines=0;fontStyle=1;align=center;resizeLast=1;html=1;rounded=1;strokeWidth=2;fillColor=#dae8fc;gradientColor=#7ea6e0;strokeColor=#000000;" vertex="1" parent="1">
          <mxGeometry x="630" y="440" width="180" height="300" as="geometry" />
        </mxCell>
        <mxCell id="6F9ETJY4roaPpVvNIyUh-178" value="" style="shape=tableRow;horizontal=0;startSize=0;swimlaneHead=0;swimlaneBody=0;fillColor=none;collapsible=0;dropTarget=0;points=[[0,0.5],[1,0.5]];portConstraint=eastwest;top=0;left=0;right=0;bottom=0;strokeColor=#000000;" vertex="1" parent="6F9ETJY4roaPpVvNIyUh-174">
          <mxGeometry y="30" width="180" height="30" as="geometry" />
        </mxCell>
        <mxCell id="6F9ETJY4roaPpVvNIyUh-179" value="" style="shape=partialRectangle;connectable=0;fillColor=none;top=0;left=0;bottom=0;right=0;editable=1;overflow=hidden;whiteSpace=wrap;html=1;strokeColor=#000000;" vertex="1" parent="6F9ETJY4roaPpVvNIyUh-178">
          <mxGeometry width="30" height="30" as="geometry">
            <mxRectangle width="30" height="30" as="alternateBounds" />
          </mxGeometry>
        </mxCell>
        <mxCell id="6F9ETJY4roaPpVvNIyUh-180" value="order_number" style="shape=partialRectangle;connectable=0;fillColor=none;top=0;left=0;bottom=0;right=0;align=left;spacingLeft=6;overflow=hidden;whiteSpace=wrap;html=1;strokeColor=#000000;fontStyle=1" vertex="1" parent="6F9ETJY4roaPpVvNIyUh-178">
          <mxGeometry x="30" width="150" height="30" as="geometry">
            <mxRectangle width="150" height="30" as="alternateBounds" />
          </mxGeometry>
        </mxCell>
        <mxCell id="6F9ETJY4roaPpVvNIyUh-181" value="" style="shape=tableRow;horizontal=0;startSize=0;swimlaneHead=0;swimlaneBody=0;fillColor=none;collapsible=0;dropTarget=0;points=[[0,0.5],[1,0.5]];portConstraint=eastwest;top=0;left=0;right=0;bottom=0;strokeColor=#000000;" vertex="1" parent="6F9ETJY4roaPpVvNIyUh-174">
          <mxGeometry y="60" width="180" height="30" as="geometry" />
        </mxCell>
        <mxCell id="6F9ETJY4roaPpVvNIyUh-182" value="FK1" style="shape=partialRectangle;connectable=0;fillColor=none;top=0;left=0;bottom=0;right=0;editable=1;overflow=hidden;whiteSpace=wrap;html=1;strokeColor=#000000;fontStyle=1" vertex="1" parent="6F9ETJY4roaPpVvNIyUh-181">
          <mxGeometry width="30" height="30" as="geometry">
            <mxRectangle width="30" height="30" as="alternateBounds" />
          </mxGeometry>
        </mxCell>
        <mxCell id="6F9ETJY4roaPpVvNIyUh-183" value="product_key" style="shape=partialRectangle;connectable=0;fillColor=none;top=0;left=0;bottom=0;right=0;align=left;spacingLeft=6;overflow=hidden;whiteSpace=wrap;html=1;strokeColor=#000000;fontStyle=1" vertex="1" parent="6F9ETJY4roaPpVvNIyUh-181">
          <mxGeometry x="30" width="150" height="30" as="geometry">
            <mxRectangle width="150" height="30" as="alternateBounds" />
          </mxGeometry>
        </mxCell>
        <mxCell id="6F9ETJY4roaPpVvNIyUh-184" value="" style="shape=tableRow;horizontal=0;startSize=0;swimlaneHead=0;swimlaneBody=0;fillColor=none;collapsible=0;dropTarget=0;points=[[0,0.5],[1,0.5]];portConstraint=eastwest;top=0;left=0;right=0;bottom=0;strokeColor=#000000;" vertex="1" parent="6F9ETJY4roaPpVvNIyUh-174">
          <mxGeometry y="90" width="180" height="30" as="geometry" />
        </mxCell>
        <mxCell id="6F9ETJY4roaPpVvNIyUh-185" value="FK2" style="shape=partialRectangle;connectable=0;fillColor=none;top=0;left=0;bottom=0;right=0;editable=1;overflow=hidden;whiteSpace=wrap;html=1;strokeColor=#000000;fontStyle=1" vertex="1" parent="6F9ETJY4roaPpVvNIyUh-184">
          <mxGeometry width="30" height="30" as="geometry">
            <mxRectangle width="30" height="30" as="alternateBounds" />
          </mxGeometry>
        </mxCell>
        <mxCell id="6F9ETJY4roaPpVvNIyUh-186" value="customer_key" style="shape=partialRectangle;connectable=0;fillColor=none;top=0;left=0;bottom=0;right=0;align=left;spacingLeft=6;overflow=hidden;whiteSpace=wrap;html=1;strokeColor=#000000;fontStyle=1" vertex="1" parent="6F9ETJY4roaPpVvNIyUh-184">
          <mxGeometry x="30" width="150" height="30" as="geometry">
            <mxRectangle width="150" height="30" as="alternateBounds" />
          </mxGeometry>
        </mxCell>
        <mxCell id="6F9ETJY4roaPpVvNIyUh-193" style="shape=tableRow;horizontal=0;startSize=0;swimlaneHead=0;swimlaneBody=0;fillColor=none;collapsible=0;dropTarget=0;points=[[0,0.5],[1,0.5]];portConstraint=eastwest;top=0;left=0;right=0;bottom=0;strokeColor=#000000;" vertex="1" parent="6F9ETJY4roaPpVvNIyUh-174">
          <mxGeometry y="120" width="180" height="30" as="geometry" />
        </mxCell>
        <mxCell id="6F9ETJY4roaPpVvNIyUh-194" style="shape=partialRectangle;connectable=0;fillColor=none;top=0;left=0;bottom=0;right=0;editable=1;overflow=hidden;whiteSpace=wrap;html=1;strokeColor=#000000;" vertex="1" parent="6F9ETJY4roaPpVvNIyUh-193">
          <mxGeometry width="30" height="30" as="geometry">
            <mxRectangle width="30" height="30" as="alternateBounds" />
          </mxGeometry>
        </mxCell>
        <mxCell id="6F9ETJY4roaPpVvNIyUh-195" value="order_date" style="shape=partialRectangle;connectable=0;fillColor=none;top=0;left=0;bottom=0;right=0;align=left;spacingLeft=6;overflow=hidden;whiteSpace=wrap;html=1;strokeColor=#000000;fontStyle=1" vertex="1" parent="6F9ETJY4roaPpVvNIyUh-193">
          <mxGeometry x="30" width="150" height="30" as="geometry">
            <mxRectangle width="150" height="30" as="alternateBounds" />
          </mxGeometry>
        </mxCell>
        <mxCell id="6F9ETJY4roaPpVvNIyUh-196" style="shape=tableRow;horizontal=0;startSize=0;swimlaneHead=0;swimlaneBody=0;fillColor=none;collapsible=0;dropTarget=0;points=[[0,0.5],[1,0.5]];portConstraint=eastwest;top=0;left=0;right=0;bottom=0;strokeColor=#000000;" vertex="1" parent="6F9ETJY4roaPpVvNIyUh-174">
          <mxGeometry y="150" width="180" height="30" as="geometry" />
        </mxCell>
        <mxCell id="6F9ETJY4roaPpVvNIyUh-197" style="shape=partialRectangle;connectable=0;fillColor=none;top=0;left=0;bottom=0;right=0;editable=1;overflow=hidden;whiteSpace=wrap;html=1;strokeColor=#000000;" vertex="1" parent="6F9ETJY4roaPpVvNIyUh-196">
          <mxGeometry width="30" height="30" as="geometry">
            <mxRectangle width="30" height="30" as="alternateBounds" />
          </mxGeometry>
        </mxCell>
        <mxCell id="6F9ETJY4roaPpVvNIyUh-198" value="shipping_date" style="shape=partialRectangle;connectable=0;fillColor=none;top=0;left=0;bottom=0;right=0;align=left;spacingLeft=6;overflow=hidden;whiteSpace=wrap;html=1;strokeColor=#000000;fontStyle=1" vertex="1" parent="6F9ETJY4roaPpVvNIyUh-196">
          <mxGeometry x="30" width="150" height="30" as="geometry">
            <mxRectangle width="150" height="30" as="alternateBounds" />
          </mxGeometry>
        </mxCell>
        <mxCell id="6F9ETJY4roaPpVvNIyUh-199" style="shape=tableRow;horizontal=0;startSize=0;swimlaneHead=0;swimlaneBody=0;fillColor=none;collapsible=0;dropTarget=0;points=[[0,0.5],[1,0.5]];portConstraint=eastwest;top=0;left=0;right=0;bottom=0;strokeColor=#000000;" vertex="1" parent="6F9ETJY4roaPpVvNIyUh-174">
          <mxGeometry y="180" width="180" height="30" as="geometry" />
        </mxCell>
        <mxCell id="6F9ETJY4roaPpVvNIyUh-200" style="shape=partialRectangle;connectable=0;fillColor=none;top=0;left=0;bottom=0;right=0;editable=1;overflow=hidden;whiteSpace=wrap;html=1;strokeColor=#000000;" vertex="1" parent="6F9ETJY4roaPpVvNIyUh-199">
          <mxGeometry width="30" height="30" as="geometry">
            <mxRectangle width="30" height="30" as="alternateBounds" />
          </mxGeometry>
        </mxCell>
        <mxCell id="6F9ETJY4roaPpVvNIyUh-201" value="due_date" style="shape=partialRectangle;connectable=0;fillColor=none;top=0;left=0;bottom=0;right=0;align=left;spacingLeft=6;overflow=hidden;whiteSpace=wrap;html=1;strokeColor=#000000;fontStyle=1" vertex="1" parent="6F9ETJY4roaPpVvNIyUh-199">
          <mxGeometry x="30" width="150" height="30" as="geometry">
            <mxRectangle width="150" height="30" as="alternateBounds" />
          </mxGeometry>
        </mxCell>
        <mxCell id="6F9ETJY4roaPpVvNIyUh-202" style="shape=tableRow;horizontal=0;startSize=0;swimlaneHead=0;swimlaneBody=0;fillColor=none;collapsible=0;dropTarget=0;points=[[0,0.5],[1,0.5]];portConstraint=eastwest;top=0;left=0;right=0;bottom=0;strokeColor=#000000;" vertex="1" parent="6F9ETJY4roaPpVvNIyUh-174">
          <mxGeometry y="210" width="180" height="30" as="geometry" />
        </mxCell>
        <mxCell id="6F9ETJY4roaPpVvNIyUh-203" style="shape=partialRectangle;connectable=0;fillColor=none;top=0;left=0;bottom=0;right=0;editable=1;overflow=hidden;whiteSpace=wrap;html=1;strokeColor=#000000;" vertex="1" parent="6F9ETJY4roaPpVvNIyUh-202">
          <mxGeometry width="30" height="30" as="geometry">
            <mxRectangle width="30" height="30" as="alternateBounds" />
          </mxGeometry>
        </mxCell>
        <mxCell id="6F9ETJY4roaPpVvNIyUh-204" value="sales_amount" style="shape=partialRectangle;connectable=0;fillColor=none;top=0;left=0;bottom=0;right=0;align=left;spacingLeft=6;overflow=hidden;whiteSpace=wrap;html=1;strokeColor=#000000;fontStyle=1" vertex="1" parent="6F9ETJY4roaPpVvNIyUh-202">
          <mxGeometry x="30" width="150" height="30" as="geometry">
            <mxRectangle width="150" height="30" as="alternateBounds" />
          </mxGeometry>
        </mxCell>
        <mxCell id="6F9ETJY4roaPpVvNIyUh-205" style="shape=tableRow;horizontal=0;startSize=0;swimlaneHead=0;swimlaneBody=0;fillColor=none;collapsible=0;dropTarget=0;points=[[0,0.5],[1,0.5]];portConstraint=eastwest;top=0;left=0;right=0;bottom=0;strokeColor=#000000;" vertex="1" parent="6F9ETJY4roaPpVvNIyUh-174">
          <mxGeometry y="240" width="180" height="30" as="geometry" />
        </mxCell>
        <mxCell id="6F9ETJY4roaPpVvNIyUh-206" style="shape=partialRectangle;connectable=0;fillColor=none;top=0;left=0;bottom=0;right=0;editable=1;overflow=hidden;whiteSpace=wrap;html=1;strokeColor=#000000;" vertex="1" parent="6F9ETJY4roaPpVvNIyUh-205">
          <mxGeometry width="30" height="30" as="geometry">
            <mxRectangle width="30" height="30" as="alternateBounds" />
          </mxGeometry>
        </mxCell>
        <mxCell id="6F9ETJY4roaPpVvNIyUh-207" value="quantity" style="shape=partialRectangle;connectable=0;fillColor=none;top=0;left=0;bottom=0;right=0;align=left;spacingLeft=6;overflow=hidden;whiteSpace=wrap;html=1;strokeColor=#000000;fontStyle=1" vertex="1" parent="6F9ETJY4roaPpVvNIyUh-205">
          <mxGeometry x="30" width="150" height="30" as="geometry">
            <mxRectangle width="150" height="30" as="alternateBounds" />
          </mxGeometry>
        </mxCell>
        <mxCell id="6F9ETJY4roaPpVvNIyUh-208" style="shape=tableRow;horizontal=0;startSize=0;swimlaneHead=0;swimlaneBody=0;fillColor=none;collapsible=0;dropTarget=0;points=[[0,0.5],[1,0.5]];portConstraint=eastwest;top=0;left=0;right=0;bottom=0;strokeColor=#000000;" vertex="1" parent="6F9ETJY4roaPpVvNIyUh-174">
          <mxGeometry y="270" width="180" height="30" as="geometry" />
        </mxCell>
        <mxCell id="6F9ETJY4roaPpVvNIyUh-209" style="shape=partialRectangle;connectable=0;fillColor=none;top=0;left=0;bottom=0;right=0;editable=1;overflow=hidden;whiteSpace=wrap;html=1;strokeColor=#000000;" vertex="1" parent="6F9ETJY4roaPpVvNIyUh-208">
          <mxGeometry width="30" height="30" as="geometry">
            <mxRectangle width="30" height="30" as="alternateBounds" />
          </mxGeometry>
        </mxCell>
        <mxCell id="6F9ETJY4roaPpVvNIyUh-210" value="price&amp;nbsp;" style="shape=partialRectangle;connectable=0;fillColor=none;top=0;left=0;bottom=0;right=0;align=left;spacingLeft=6;overflow=hidden;whiteSpace=wrap;html=1;strokeColor=#000000;fontStyle=1" vertex="1" parent="6F9ETJY4roaPpVvNIyUh-208">
          <mxGeometry x="30" width="150" height="30" as="geometry">
            <mxRectangle width="150" height="30" as="alternateBounds" />
          </mxGeometry>
        </mxCell>
        <mxCell id="6F9ETJY4roaPpVvNIyUh-211" value="" style="edgeStyle=entityRelationEdgeStyle;fontSize=12;html=1;endArrow=ERoneToMany;startArrow=ERmandOne;rounded=0;entryX=0;entryY=0.5;entryDx=0;entryDy=0;exitX=0.963;exitY=0.619;exitDx=0;exitDy=0;exitPerimeter=0;" edge="1" parent="1" source="6F9ETJY4roaPpVvNIyUh-33" target="6F9ETJY4roaPpVvNIyUh-184">
          <mxGeometry width="100" height="100" relative="1" as="geometry">
            <mxPoint x="490" y="490" as="sourcePoint" />
            <mxPoint x="590" y="390" as="targetPoint" />
            <Array as="points">
              <mxPoint x="500" y="450" />
              <mxPoint x="510" y="450" />
              <mxPoint x="640" y="540" />
            </Array>
          </mxGeometry>
        </mxCell>
        <mxCell id="6F9ETJY4roaPpVvNIyUh-213" value="" style="edgeStyle=entityRelationEdgeStyle;fontSize=12;html=1;endArrow=ERoneToMany;startArrow=ERmandOne;rounded=0;exitX=0;exitY=0.5;exitDx=0;exitDy=0;entryX=1;entryY=0.5;entryDx=0;entryDy=0;" edge="1" parent="1" source="6F9ETJY4roaPpVvNIyUh-126" target="6F9ETJY4roaPpVvNIyUh-181">
          <mxGeometry width="100" height="100" relative="1" as="geometry">
            <mxPoint x="827" y="660" as="sourcePoint" />
            <mxPoint x="870" y="530" as="targetPoint" />
            <Array as="points">
              <mxPoint x="937" y="540" />
              <mxPoint x="967" y="690" />
            </Array>
          </mxGeometry>
        </mxCell>
        <mxCell id="6F9ETJY4roaPpVvNIyUh-214" value="&lt;h1 style=&quot;margin-top: 0px;&quot;&gt;&lt;font style=&quot;font-size: 18px;&quot;&gt;Sales Calculations&lt;/font&gt;&lt;/h1&gt;&lt;div&gt;&lt;font style=&quot;font-size: 16px;&quot;&gt;Sales = Quantity * Price&lt;/font&gt;&lt;/div&gt;" style="text;html=1;whiteSpace=wrap;overflow=hidden;rounded=0;dashed=1;strokeWidth=1;perimeterSpacing=2;strokeColor=default;" vertex="1" parent="1">
          <mxGeometry x="630" y="770" width="180" height="120" as="geometry" />
        </mxCell>
        <mxCell id="6F9ETJY4roaPpVvNIyUh-219" value="" style="edgeStyle=orthogonalEdgeStyle;html=1;endArrow=block;elbow=vertical;startArrow=block;startFill=1;endFill=1;strokeColor=#545B64;rounded=0;exitX=0;exitY=0.5;exitDx=0;exitDy=0;" edge="1" parent="1" source="6F9ETJY4roaPpVvNIyUh-202">
          <mxGeometry width="100" relative="1" as="geometry">
            <mxPoint x="540" y="810" as="sourcePoint" />
            <mxPoint x="630" y="830" as="targetPoint" />
            <Array as="points">
              <mxPoint x="550" y="665" />
              <mxPoint x="550" y="830" />
            </Array>
          </mxGeometry>
        </mxCell>
        <mxCell id="6F9ETJY4roaPpVvNIyUh-220" value="&lt;font style=&quot;font-size: 24px;&quot;&gt;&lt;b&gt;Sales Data Mart (Star Schema)&lt;/b&gt;&lt;/font&gt;" style="text;html=1;align=center;verticalAlign=middle;whiteSpace=wrap;rounded=0;" vertex="1" parent="1">
          <mxGeometry x="290" y="350" width="360" height="80" as="geometry" />
        </mxCell>
      </root>
    </mxGraphModel>
  </diagram>
</mxfile>
